<svg width="56" height="56" viewBox="0 0 56 56" fill="none" xmlns="http://www.w3.org/2000/svg">
<path d="M35.8651 31.7471C36.4241 31.8918 36.9049 32.0345 37.308 32.1763C37.8302 32.3251 38.3067 32.4317 38.7366 32.4961C39.4777 32.6174 40.2458 32.6873 41.0406 32.7057C41.2847 32.7046 41.5838 32.6964 41.9368 32.6813C43.0086 32.6053 44.266 32.4727 45.7078 32.2835C47.6718 31.9474 49.0294 31.1098 49.7789 29.7714C50.3451 28.8042 50.7925 28.0291 51.1187 27.447C51.2268 27.1893 51.3348 26.9575 51.442 26.751C51.7487 26.1276 51.8988 25.7009 51.8916 25.473C51.8796 25.2613 51.7853 25.1062 51.611 25.0082C51.4423 24.8928 51.2463 24.7799 51.0238 24.6712C50.8037 24.5606 50.4294 24.4119 49.9013 24.2239C50.2097 24.0555 50.5267 23.8972 50.8525 23.7479C51.1824 23.6 51.3979 23.4065 51.501 23.1667C51.5877 22.9203 51.558 22.6571 51.4123 22.3782C51.3592 22.1332 51.1341 21.8098 50.7349 21.4086C50.2307 20.8127 49.6285 20.1487 48.9287 19.4145C47.5267 18.1035 45.8634 17.3606 43.9387 17.189C43.2016 17.1556 42.408 17.208 41.5588 17.3443C40.5281 17.4527 39.3044 17.9619 37.8857 18.8739C37.2868 19.2897 36.6133 19.7931 35.8659 20.3838C35.7749 20.5431 35.686 20.7207 35.5995 20.917C35.5142 21.0613 35.3891 21.2436 35.2245 21.4644C34.4466 22.7954 33.6109 23.8081 32.7196 24.501C31.911 25.7258 31.5055 26.6797 31.5029 27.3648C31.4897 28.0418 31.6035 28.5604 31.8435 28.9213C32.0231 29.1942 32.3093 29.4952 32.7012 29.8244C32.8392 29.9213 32.9856 30.0248 33.1406 30.1358C33.8395 30.6254 34.7475 31.1626 35.8651 31.7471ZM27.6103 37.0198C27.5269 37.7039 27.4092 38.3597 27.2584 38.9856C27.2775 39.0792 27.2945 39.1811 27.3081 39.2903C27.5107 40.546 27.8263 41.5801 28.2547 42.3927C28.3541 42.6539 28.4803 42.8901 28.6326 43.1005C29.2587 43.8952 30.1723 44.8865 31.3738 46.0759C31.7208 46.4243 32.1107 46.7273 32.5432 46.9834C33.5872 47.6294 34.9055 48.0407 36.4981 48.2179C38.0757 48.3368 39.0101 48.3787 39.3013 48.3418C39.6132 48.3471 39.8743 48.2992 40.0834 48.1989C40.3091 48.0515 40.4173 47.8203 40.4068 47.5025C40.3782 47.3163 40.3692 46.8959 40.3812 46.2392C41.1133 46.7463 41.5346 47.0339 41.645 47.1023C41.8464 47.1732 42.0928 47.0421 42.3843 46.709C42.5014 46.5239 42.6565 46.2308 42.8508 45.8286C42.8898 45.668 42.9444 45.5129 43.0142 45.3641C43.6521 43.5509 43.9725 41.9218 43.9756 40.4773C43.9778 38.7883 43.568 37.3038 42.748 36.0223C41.9269 34.7413 40.591 33.5656 38.7376 32.4959C38.3076 32.4316 37.8311 32.3249 37.309 32.1762C36.9058 32.0344 36.425 31.8917 35.866 31.747C34.748 31.1624 33.8404 30.6253 33.1415 30.1357C32.9865 30.0247 32.8404 29.9217 32.7021 29.8243C31.6951 29.4884 30.8995 29.3743 30.3159 29.4804C29.7169 29.582 29.1391 30.1621 28.5796 31.2213C28.5771 31.3114 28.5725 31.3971 28.5676 31.4783C28.5446 31.9399 28.4476 32.6375 28.276 33.5697C28.1024 34.6069 27.8809 35.7564 27.6103 37.0198ZM12.6968 44.809C12.9579 45.4054 13.3045 45.6062 13.7396 45.4102C13.8428 45.3434 14.2505 45.3219 14.9647 45.3451C14.9972 45.659 15.009 45.8729 15.0007 45.9842C14.9043 46.4558 15.1745 46.7511 15.8121 46.871C16.0245 46.9108 16.2316 46.9397 16.4344 46.9595C19.2622 47.1881 21.542 46.7708 23.2743 45.7087C24.0877 45.1761 24.7611 44.5509 25.2925 43.8327C25.744 43.2422 26.1404 42.5115 26.4821 41.6382C26.7971 40.8434 27.0557 39.9593 27.2583 38.986C27.409 38.3601 27.5268 37.7043 27.6102 37.0202C27.8808 35.7568 28.1023 34.6073 28.2752 33.5707C28.4469 32.6381 28.5444 31.9406 28.5668 31.4794C28.5716 31.3982 28.5759 31.3123 28.5788 31.2223C28.5381 30.7841 28.3705 30.2466 28.0757 29.6082C27.7107 28.814 26.7481 28.2831 25.1874 28.0177L20.3382 29.5508C19.4978 29.7601 18.8449 29.983 18.3778 30.2193L18.3464 30.2347C18.3135 30.229 18.2934 30.2389 18.2844 30.2644C17.813 30.4643 17.352 30.6857 16.9014 30.9273C16.0673 31.4181 15.4092 31.9524 14.9267 32.5319C14.296 33.2851 13.5759 34.4164 12.7668 35.9252C11.9312 37.4075 11.647 39.0843 11.9121 40.9534C11.9189 41.1301 11.9302 41.2739 11.9435 41.3825L11.9585 41.4151C12.1515 43.0523 12.3978 44.184 12.6968 44.809ZM18.3778 30.2193C18.8447 29.9825 19.498 29.7597 20.3383 29.5504L25.1876 28.0173C25.414 27.8335 25.5686 27.6437 25.6491 27.4479C25.9951 26.6098 26.1562 25.9786 26.1324 25.5544C26.0998 25.1109 26.0411 24.5848 25.9561 23.9769C25.414 23.4134 24.9391 22.7063 24.5333 21.8573C23.39 19.4682 22.6718 17.9711 22.3783 17.3633C21.978 17.0657 21.564 16.8071 21.1359 16.587C21.059 16.56 20.9585 16.5246 20.8341 16.4809C19.9314 16.0764 18.7504 15.7214 17.2902 15.4165C15.7615 15.0082 13.7376 15.3413 11.2178 16.4153C9.84163 17.0434 8.97146 17.4865 8.60851 17.7438C8.10207 17.8981 8.03976 18.1988 8.42184 18.6451C8.80344 19.0876 8.96226 19.3788 8.89874 19.5173C8.81939 19.6512 8.54423 19.7901 8.07314 19.9331C7.6028 20.0791 7.39792 20.3901 7.45773 20.8647C7.45244 21.1765 7.48133 21.4918 7.54333 21.8098C8.03208 24.2801 8.87914 26.207 10.0823 27.5878C10.8883 28.4633 11.8211 29.1312 12.8782 29.59C13.9932 30.0342 15.3481 30.2411 16.9443 30.2102C17.3988 30.233 17.8666 30.2407 18.3464 30.2334L18.3778 30.2193ZM21.917 15.5551C22.0273 16.1334 22.1811 16.7369 22.3781 17.3628C22.6715 17.9706 23.3897 19.4676 24.533 21.8568C24.9388 22.7057 25.4138 23.4128 25.9558 23.9763C26.9141 24.9704 28.0776 25.5011 29.4444 25.5697C30.6097 25.6301 31.7018 25.2735 32.7196 24.501C33.6113 23.8083 34.447 22.7956 35.2249 21.4645C35.3895 21.2437 35.5146 21.0614 35.5999 20.9171C35.6866 20.7204 35.7751 20.5427 35.8659 20.3838C36.4188 19.3065 36.7599 18.3381 36.8887 17.4778C36.8798 17.3527 36.8825 17.2228 36.8951 17.0888C36.9381 16.024 36.839 14.6739 36.5957 13.0383C36.5157 12.2264 36.266 11.4508 35.8467 10.7117C35.3468 9.85653 34.6689 9.03461 33.8142 8.24642C32.6176 7.09414 31.6492 6.28294 30.9085 5.814C30.6776 5.62837 30.5088 5.61154 30.4026 5.76687C30.3241 5.94673 30.1963 6.2334 30.0214 6.62491C29.8431 7.01702 29.6957 7.11258 29.5805 6.91389C29.455 6.69363 29.3507 6.39524 29.2684 6.02034C29.179 5.62367 28.989 5.46946 28.6994 5.55893C28.2128 5.75383 27.6442 6.03241 26.994 6.39561C26.594 6.69048 26.1952 6.98483 25.7946 7.28036C23.1216 9.28277 21.7953 11.62 21.8133 14.2908C21.8118 14.6913 21.8465 15.1122 21.917 15.5551Z" fill="#FCC0C0"/>
<path d="M28.0743 29.6086C28.3691 30.2469 28.5367 30.7844 28.5774 31.2227C29.1369 30.1635 29.7147 29.5834 30.3137 29.4818C30.8973 29.3757 31.6929 29.4898 32.6999 29.8256C32.308 29.4964 32.0218 29.1955 31.8422 28.9226C31.6022 28.5616 31.4886 28.0426 31.5016 27.3661C31.5041 26.6814 31.9096 25.7275 32.7184 24.5023C31.7005 25.2748 30.6085 25.6314 29.4427 25.5708C28.0759 25.5022 26.9126 24.9711 25.9541 23.9775C26.0392 24.5854 26.0978 25.1115 26.1305 25.555C26.1541 25.9796 25.993 26.6108 25.6472 27.4485C25.5667 27.6443 25.4121 27.8341 25.1856 28.0179C26.7467 28.2834 27.7093 28.8143 28.0743 29.6086Z" fill="#EE9090"/>
<path d="M38.7065 32.3022C37.4234 32.0848 36.113 31.7067 34.9729 31.0753C34.1163 30.601 33.2783 29.8011 32.3509 29.5179C31.6266 29.2967 30.8024 29.1363 30.0542 29.3297C29.2832 29.529 28.778 30.4415 28.4253 31.0685C28.3289 31.2393 28.6039 31.5593 28.7092 31.3722C29.1462 30.5961 29.6471 29.7645 30.6063 29.6454C31.7984 29.4974 32.8176 30.145 33.7682 30.7523C35.3237 31.7467 36.9404 32.3854 38.7656 32.6945C39.0011 32.7348 38.8963 32.3345 38.7065 32.3022Z" fill="#4C1B20"/>
<path d="M32.7618 29.6548C30.9734 28.1223 31.7873 26.3222 32.8641 24.6447C32.9504 24.5101 32.7777 24.1922 32.6111 24.3128C30.5255 25.8264 27.9225 25.676 26.0516 23.8532C25.9391 23.7438 25.7597 23.7747 25.7843 23.9582C25.9559 25.2374 26.1558 26.8752 25.0629 27.8355C24.9065 27.9732 25.1339 28.3279 25.2845 28.1953C26.4862 27.1398 26.3138 25.4198 26.1232 23.9999C26.0343 24.0349 25.9452 24.0703 25.856 24.1048C27.8259 26.0243 30.5968 26.2951 32.8323 24.6725C32.7481 24.5617 32.6637 24.4514 32.5794 24.3406C31.3184 26.3061 30.6675 28.2813 32.6451 29.9763C32.8557 30.1561 32.9201 29.7908 32.7618 29.6548Z" fill="#4C1B20"/>
<path d="M26.0512 23.8529C24.4205 22.0631 23.5788 19.5044 22.5322 17.3348C22.4315 17.1255 22.0981 17.1445 22.2195 17.3956C23.3006 19.6369 24.1653 22.2498 25.856 24.1046C26.0431 24.3102 26.2104 24.0281 26.0512 23.8529Z" fill="#4C1B20"/>
<path d="M35.7022 20.2723C34.9076 21.7614 33.9403 23.245 32.6108 24.3125C32.4483 24.4431 32.6742 24.7995 32.8324 24.6723C34.2127 23.5635 35.202 22.0469 36.0263 20.501C36.1177 20.3293 35.817 20.0568 35.7022 20.2723Z" fill="#4C1B20"/>
<path d="M41.5513 28.5758C41.6007 28.4355 41.6188 28.2859 41.6061 28.1246C41.5585 27.8636 41.4028 27.6874 41.1392 27.5947C40.5343 27.3819 39.0482 27.2512 36.6795 27.2012C34.2069 27.1501 32.9165 27.2796 32.8074 27.5898C32.5512 28.3179 32.9916 28.6991 34.1288 28.734C35.4867 28.6367 36.3451 28.5991 36.7029 28.6201C37.9678 28.7872 38.9298 28.8984 39.5889 28.956C40.767 29.0742 41.4206 28.9475 41.5513 28.5758ZM40.9513 21.5203C40.9568 21.5047 40.9566 21.3828 40.9497 21.1541C40.9172 20.8989 40.7619 20.7224 40.4828 20.6242C40.2348 20.5369 39.9949 20.6009 39.7626 20.8154C39.6041 20.968 39.4869 21.1535 39.4104 21.3708C39.2254 21.8967 39.3731 22.2194 39.8542 22.3371C40.3514 22.4587 40.7167 22.187 40.9513 21.5203ZM35.8182 25.5659C36.7167 24.9939 37.6582 24.2716 38.644 23.3991C38.8132 22.9182 38.6807 22.6018 38.2472 22.4493C38.0614 22.3839 37.2981 22.7947 35.9584 23.6821C34.6404 24.5588 33.9536 25.0754 33.8991 25.2305C33.4084 26.6254 34.0478 26.7374 35.8182 25.5659ZM31.5172 15.1449C31.3701 15.2675 31.2656 15.4131 31.2054 15.5842C31.0148 16.1261 31.1388 16.4664 31.5792 16.6029C32.039 16.7302 32.3565 16.5461 32.5309 16.0505L32.6066 15.685C32.5905 15.3831 32.4282 15.1782 32.1184 15.0692C31.9014 14.9928 31.7011 15.0183 31.5172 15.1449ZM30.348 22.2569C30.8316 22.514 31.1803 22.3405 31.393 21.7359C31.9047 19.0431 31.9909 17.6364 31.6496 17.5163C31.2157 17.3637 30.8757 17.6361 30.6303 18.3336C30.5158 18.6589 30.4211 19.0786 30.3447 19.5913C30.2347 20.3014 30.1736 20.698 30.1615 20.7807C29.8116 21.5283 29.8733 22.0205 30.348 22.2569ZM27.231 13.219C27.4054 12.7233 27.276 12.3995 26.8417 12.2468C26.4079 12.0942 26.1038 12.2655 25.9295 12.7611C25.7659 13.2261 25.9009 13.5353 26.3348 13.6879C26.769 13.8407 27.0675 13.684 27.231 13.219ZM26.6113 19.1396C27.1738 21.5494 27.7199 22.0032 28.2489 20.4995C27.5212 16.4296 27.0878 14.37 26.9474 14.3206C26.7309 14.2444 26.533 14.2618 26.3547 14.3738C26.2026 14.4597 26.0966 14.5877 26.0367 14.758C25.8513 15.2852 26.0429 16.7453 26.6113 19.1396ZM18.5124 19.2167C18.2991 19.2281 18.1433 19.3741 18.045 19.6536C17.887 20.1026 18.1012 20.5091 18.6878 20.8719C19.9435 21.6094 20.8856 22.2724 21.5156 22.8597C22.2448 23.7077 22.745 24.2413 23.0163 24.4586C23.4527 24.8039 23.7657 24.7052 23.9564 24.1629C24.0382 23.9304 23.5955 23.2082 22.6291 21.9976C21.5391 20.639 20.4912 19.7824 19.4835 19.4279C19.0183 19.2638 18.6939 19.1936 18.5124 19.2167ZM16.008 24.1091C15.7261 24.1664 15.5446 24.3118 15.4631 24.5434C15.3048 24.9932 15.5015 25.3501 16.0529 25.6131C16.6253 25.8673 17.0099 25.7154 17.2065 25.1567L17.2821 24.7926C17.2975 24.5018 17.1427 24.2986 16.8169 24.184C16.5382 24.0859 16.2683 24.0609 16.008 24.1091ZM20.0887 24.7605C19.2783 24.7371 18.8134 24.8957 18.6936 25.2363C18.5028 25.7786 18.7573 26.0944 19.4569 26.1846C20.8777 26.3533 21.6889 26.4737 21.8903 26.5446C22.3393 26.7025 22.6374 26.7724 22.7833 26.7539C22.9656 26.7311 23.1083 26.5725 23.212 26.2778C23.3809 25.7977 23.2565 25.4837 22.8378 25.3364C21.8152 24.9762 20.8991 24.7843 20.0887 24.7605ZM18.8182 36.5398C19.2831 36.7033 19.6085 36.5211 19.7938 35.9944C19.9627 35.5143 19.8383 35.2003 19.4196 35.053C19.2027 34.9767 18.9755 35.0276 18.7394 35.2058C18.5344 35.3416 18.4048 35.4883 18.3504 35.643C18.1972 36.0771 18.3532 36.3762 18.8182 36.5398ZM23.9628 30.8258C23.2969 30.5916 22.1167 31.5695 20.423 33.7601C20.1068 34.6589 20.2603 34.9652 20.8839 34.6791C21.3543 34.4794 21.775 34.1752 22.1457 33.7647C22.5574 33.3356 23.3017 32.6823 24.3759 31.8069C24.5504 31.3108 24.413 30.9842 23.9628 30.8258ZM24.9332 33.4136C24.688 34.1106 24.5571 34.4827 24.5404 34.5301C24.0062 36.0486 23.9562 36.8838 24.3909 37.0367C24.8399 37.1946 25.3317 36.5149 25.8659 34.9964C25.8826 34.949 26.0135 34.5769 26.2587 33.8799C26.421 33.1702 26.3163 32.7507 25.9446 32.62C25.5727 32.4887 25.2358 32.7533 24.9332 33.4136ZM32.6853 37.8126C32.2519 37.6601 31.956 37.8083 31.7979 38.2577C31.6398 38.7071 31.7855 39.159 32.2352 39.613C32.6902 40.0522 33.0323 39.9458 33.2614 39.2946L33.2333 38.6318C33.1625 38.1897 32.9804 37.9164 32.6853 37.8126ZM30.3278 32.4116C30.1858 32.5185 30.0873 32.6496 30.0328 32.8044C29.9238 33.1142 30.2321 34.1193 30.9571 35.82C31.7033 37.5101 32.2806 37.7746 32.6895 36.6122C31.8725 33.8866 31.2852 32.4607 30.9287 32.3353C30.728 32.2652 30.5273 32.2905 30.3278 32.4116ZM33.2945 31.6265C33.0493 31.6801 32.8833 31.831 32.7963 32.0782C32.7365 32.2485 33.426 33.1099 34.8658 34.6614C36.3262 36.2026 37.1794 36.6242 37.4246 35.9272C37.5172 35.664 37.1061 34.9525 36.1892 33.7947C35.2172 32.5987 34.3977 31.8838 33.731 31.6492C33.5913 31.6005 33.4457 31.5928 33.2945 31.6265Z" fill="#F0A3A3"/>
<path d="M32.1109 44.7943C32.8165 45.164 33.2729 45.0552 33.4801 44.4663C33.6818 43.8928 33.2947 43.434 32.3186 43.0906C31.8229 42.9162 31.4927 43.0613 31.329 43.5267C31.1542 44.0222 31.4153 44.4443 32.1109 44.7943ZM45.9323 29.4898C45.7907 29.5968 45.692 29.727 45.6375 29.8821C45.4467 30.4244 45.5836 30.7778 46.0486 30.9413C46.5347 31.0944 46.8673 30.9157 47.0472 30.4045C47.2271 29.8929 47.0847 29.5551 46.6198 29.3915C46.3717 29.3043 46.1429 29.3371 45.9323 29.4898ZM47.3627 25.9434C47.1297 26.2096 46.9394 26.5518 46.7921 26.9705C46.4267 28.0093 46.6253 28.5582 47.3883 28.6169C48.1457 28.692 48.729 28.1484 49.1379 26.986C49.2524 26.6606 49.3126 26.464 49.3188 26.3967C49.3306 26.0178 49.104 25.7462 48.639 25.5827C48.1589 25.4138 47.7337 25.5335 47.3627 25.9434ZM46.5518 23.1241C46.2178 23.2329 46.0096 23.4043 45.9281 23.636C45.7481 24.1476 45.9687 24.4605 46.59 24.5746C47.2116 24.6889 47.6045 24.5134 47.7681 24.0485C47.9426 23.5524 47.7898 23.2199 47.3093 23.0509C47.1079 22.9801 46.8555 23.0046 46.5518 23.1241ZM45.849 19.9247C45.7119 20.0163 45.5811 20.2405 45.4557 20.597C45.1722 21.4029 45.5959 22.0301 46.726 22.481C47.8776 22.9206 48.6114 22.6907 48.9277 21.7915C49.1621 21.1252 48.5507 20.5359 47.0941 20.0235C46.5209 19.8223 46.1061 19.7888 45.849 19.9247ZM26.3322 9.61156C26.1195 10.2161 26.2853 10.5612 26.8291 10.6485C27.3948 10.7257 27.8298 10.3298 28.1352 9.46166C28.1407 9.44611 28.1531 9.31155 28.1726 9.05719C28.131 8.78083 27.9552 8.58861 27.6446 8.47933C27.3507 8.37595 27.0572 8.49049 26.7666 8.8238C26.5801 9.05442 26.4357 9.31728 26.3322 9.61156ZM29.85 11.7892C29.9373 11.5412 29.9752 11.2588 29.9653 10.9417C29.9476 10.4483 29.7688 10.1412 29.4275 10.0211C29.195 9.93935 28.9891 9.95385 28.8102 10.0652C28.6377 10.1618 28.5184 10.3022 28.453 10.4881C28.1913 11.2321 28.3015 11.7849 28.7835 12.1458C29.2874 12.4969 29.643 12.3778 29.85 11.7892ZM30.5242 8.23853C30.3987 8.35076 30.2802 8.56138 30.1712 8.87121C29.9312 9.55349 30.2562 10.4601 31.1471 11.5922C32.0324 12.7393 32.718 12.6234 33.2032 11.2441C33.2905 10.9961 33.2351 10.533 33.0389 9.85404C32.7838 8.94606 32.3223 8.37413 31.6563 8.13986C31.1597 7.96561 30.7832 7.99895 30.5242 8.23853ZM12.7376 18.2563C12.6954 17.9802 12.527 17.7901 12.2327 17.6866C12.0158 17.6103 11.6578 17.7106 11.1599 17.9885C10.6881 18.2406 10.4279 18.4363 10.3786 18.5763C10.1226 19.304 10.406 19.613 11.2285 19.5017C12.0509 19.3904 12.5415 19.1104 12.6997 18.6606C12.7435 18.5362 12.7555 18.4015 12.7376 18.2563ZM11.7966 20.4853C11.6386 20.5866 11.5276 20.7304 11.4622 20.9162C11.3205 21.3189 11.4992 21.6784 11.9976 21.9927C12.4963 22.3075 12.8441 22.1865 13.0406 21.6278L13.1034 21.1539C13.0614 20.8259 12.8316 20.5877 12.4129 20.4404C12.1804 20.3586 11.9753 20.3734 11.7966 20.4853ZM10.4137 24.4916C11.1038 25.1525 11.6154 25.0102 11.948 24.0648C11.9534 24.0496 11.9471 23.7947 11.9292 23.3004C11.824 22.7588 11.4999 22.3925 10.9575 22.2017C10.6006 22.0762 10.3235 22.0486 10.1245 22.1175C9.94135 22.1924 9.79897 22.378 9.69545 22.6723C9.49948 23.2294 9.73826 23.8359 10.4137 24.4916ZM14.2001 39.1979C13.7347 39.0342 13.3935 39.2628 13.1755 39.8825C12.8647 40.7661 12.9303 41.4941 13.3726 42.0687C13.8361 42.6323 14.2017 42.5346 14.469 41.7746L14.5508 40.5755C14.5647 39.7447 14.4473 39.2849 14.2001 39.1979ZM16.2937 43.1223L16.4271 42.5943C16.4386 42.2152 16.2661 41.9627 15.9096 41.8373C15.6305 41.7391 15.3776 41.816 15.1497 42.0665C15.028 42.215 14.9316 42.3908 14.8609 42.5918C14.6266 43.2577 14.7498 43.6757 15.2303 43.8447C15.71 44.0135 16.0649 43.7727 16.2937 43.1223ZM17.9544 43.0791C17.4448 43.4398 17.1322 43.7833 17.018 44.1079C16.6361 45.1934 16.9738 45.6424 18.0321 45.4581C19.0894 45.2727 19.7658 44.7614 20.0603 43.9244C20.0711 43.8937 20.1131 43.7256 20.1857 43.42C20.1595 43.0971 19.9147 42.8542 19.4493 42.6904C19.0309 42.5437 18.5324 42.673 17.9544 43.0791ZM35.7665 45.2441C35.3609 45.2583 35.0982 45.4356 34.9783 45.7766C34.7765 46.35 35.1675 46.7748 36.15 47.0505C37.1376 47.3119 37.7247 47.1779 37.9097 46.6519C38.0898 46.1399 37.9317 45.797 37.4361 45.6227C36.7075 45.3664 36.1509 45.2405 35.7665 45.2441ZM38.3657 43.5725C38.1212 43.6254 37.9548 43.7761 37.8676 44.0241C37.7587 44.3336 37.9615 44.7966 38.4758 45.4135C39.0112 46.02 39.41 45.9514 39.6717 45.2073L39.6519 44.521C39.5406 44.0463 39.2827 43.7387 38.8796 43.5969C38.7249 43.5424 38.5536 43.5337 38.3657 43.5725ZM40.0221 40.4982C39.8474 40.6979 39.6811 41.023 39.523 41.4724C39.1797 42.4482 39.4697 43.4303 40.3933 44.4171C41.3331 45.4091 42.018 45.2929 42.4486 44.0687L42.6016 42.3726C42.5593 41.1555 42.1814 40.4221 41.4689 40.1714C40.8806 39.9635 40.3983 40.0735 40.0221 40.4982Z" fill="#FAD5D5"/>
<path d="M33.481 32.3874C33.2886 32.1929 33.0911 32.0029 32.9026 31.8049C32.7096 31.6021 32.5866 31.8738 32.741 32.0362C32.9299 32.2343 33.127 32.4242 33.3198 32.6189C33.5157 32.8173 33.6392 32.5466 33.481 32.3874Z" fill="#4C1B20"/>
<path d="M31.9994 36.3811C31.4782 35.0998 31.0487 33.8101 30.7041 32.47C30.6576 32.2901 30.3258 32.1416 30.3949 32.4101C30.7483 33.7837 31.1854 35.1066 31.7201 36.4208C31.8038 36.6264 32.1054 36.6415 31.9994 36.3811Z" fill="#4C1B20"/>
<path d="M25.3412 36.2132C25.741 35.1672 26.1453 34.1148 26.4344 33.0317C26.4772 32.8706 26.1849 32.5769 26.1277 32.7916C25.8388 33.8752 25.4341 34.9275 25.0345 35.9731C24.9746 36.1295 25.26 36.4248 25.3412 36.2132Z" fill="#4C1B20"/>
<path d="M19.7377 34.9862C19.5076 35.197 19.2766 35.4079 19.0451 35.6177C18.9064 35.7432 19.1384 36.0938 19.2667 35.9776C19.4981 35.7681 19.7287 35.5571 19.9593 35.3461C20.097 35.2197 19.8649 34.8692 19.7377 34.9862Z" fill="#4C1B20"/>
<path d="M23.9461 31.1913C22.9194 32.0946 21.9038 33.0109 20.892 33.9317C20.7536 34.0577 20.9858 34.4078 21.1136 34.2915C22.125 33.3706 23.1404 32.4547 24.1677 31.5511C24.3078 31.4279 24.0766 31.0763 23.9461 31.1913Z" fill="#4C1B20"/>
<path d="M40.6606 21.6184C40.3201 21.8424 39.98 22.0664 39.6399 22.2919C39.4862 22.3937 39.7101 22.7521 39.8615 22.6517C40.2011 22.4265 40.5415 22.2026 40.8822 21.9783C41.0361 21.8769 40.8128 21.5183 40.6606 21.6184Z" fill="#4C1B20"/>
<path d="M16.7455 24.9771C16.2331 24.8591 15.7135 24.7095 15.1918 24.6398C14.9679 24.6099 15.1016 24.9993 15.2676 25.0218C15.7897 25.0917 16.3094 25.2409 16.8217 25.3593C17.0369 25.4085 16.9072 25.0143 16.7455 24.9771Z" fill="#4C1B20"/>
<path d="M24.1002 24.5287C22.5472 22.9043 20.9551 21.1666 19.0335 19.9694C18.8218 19.8376 18.8882 20.236 19.0289 20.324C20.8932 21.4853 22.4321 23.1842 23.9382 24.7599C24.1318 24.9624 24.2553 24.6904 24.1002 24.5287Z" fill="#4C1B20"/>
<path d="M28.0648 20.8765C27.2551 18.7696 26.9065 16.8715 26.9777 14.6157C26.9832 14.4447 26.6675 14.2059 26.6594 14.4607C26.5857 16.7847 26.9524 18.7487 27.7856 20.9162C27.8655 21.1245 28.1653 21.1386 28.0648 20.8765Z" fill="#4C1B20"/>
<path d="M22.3951 25.8415C21.1638 25.7265 19.9352 25.5887 18.7158 25.3838C18.4945 25.3467 18.6266 25.7378 18.7916 25.7658C20.0115 25.9705 21.2401 26.1083 22.4708 26.2235C22.697 26.2444 22.5621 25.8572 22.3951 25.8415Z" fill="#4C1B20"/>
<path d="M30.8119 22.2667C31.2694 20.8032 31.6161 19.3259 31.9177 17.8228C31.9502 17.6604 31.654 17.3684 31.6109 17.5827C31.3094 19.0858 30.9629 20.5636 30.5051 22.0266C30.4556 22.1866 30.7451 22.4807 30.8119 22.2667Z" fill="#4C1B20"/>
<path d="M38.4663 23.0682C36.5589 24.3415 34.6241 25.5752 32.612 26.6773C32.4534 26.764 32.6716 27.1257 32.8336 27.0371C34.8457 25.935 36.7805 24.7013 38.6879 23.428C38.8413 23.3256 38.6174 22.9672 38.4663 23.0682Z" fill="#4C1B20"/>
<path d="M32.2908 15.9431C32.3372 15.6672 32.3828 15.3911 32.4252 15.1152C32.4409 15.0118 32.3975 14.9087 32.3147 14.8433C32.2587 14.7999 32.1341 14.7721 32.1185 14.8751C32.0759 15.1514 32.0303 15.4275 31.9841 15.703C31.9667 15.8057 32.0123 15.9105 32.0945 15.9748C32.1512 16.019 32.2736 16.0455 32.2908 15.9431Z" fill="#4C1B20"/>
<path d="M36.803 36.012C36.0218 35.0902 35.2144 34.1931 34.3808 33.3182C34.1878 33.1154 34.0648 33.3872 34.2192 33.5495C35.0523 34.4247 35.8601 35.3218 36.6414 36.2433C36.8235 36.458 36.9463 36.1803 36.803 36.012Z" fill="#4C1B20"/>
<path d="M41.2971 28.9913C38.5847 28.6116 35.8526 28.3567 33.1288 28.0769C32.9034 28.0541 33.0381 28.442 33.205 28.4591C35.9291 28.738 38.661 28.9933 41.3733 29.3734C41.5961 29.4048 41.4627 29.0146 41.2971 28.9913Z" fill="#4C1B20"/>
<path d="M33.272 39.3368C33.0674 38.8839 32.8654 38.4301 32.6671 37.975C32.6323 37.8955 32.5517 37.7883 32.4508 37.8026C32.3526 37.8168 32.3578 37.9473 32.3878 38.0148C32.5866 38.4701 32.788 38.9241 32.9931 39.3767C33.029 39.4556 33.1075 39.5634 33.2094 39.5491C33.3063 39.5348 33.3028 39.4045 33.272 39.3368Z" fill="#4C1B20"/>
<path d="M30.4292 24.7683L30.4523 24.7765C30.6161 24.8269 30.7774 24.8142 30.9364 24.7379C31.104 24.6576 31.2175 24.5312 31.2772 24.3614C31.3373 24.1907 31.3276 24.0219 31.2472 23.8543C31.1666 23.6874 31.0412 23.5739 30.8705 23.5138C30.7006 23.4541 30.5313 23.464 30.364 23.5436C30.1963 23.624 30.0826 23.7498 30.0227 23.92C29.9628 24.0903 29.9726 24.26 30.0531 24.4272C30.1335 24.5949 30.2593 24.7086 30.4292 24.7683ZM25.6478 25.9596C25.7854 25.8843 25.8902 25.7813 25.9647 25.6534C25.9785 25.6144 25.9921 25.5757 26.0057 25.537C26.0709 25.3516 26.0638 25.1743 25.9829 25.0069C25.8922 24.8177 25.7541 24.6916 25.5679 24.6261C25.3821 24.5608 25.2026 24.5756 25.0291 24.6714C24.8464 24.746 24.7227 24.8773 24.6575 25.0627C24.5918 25.2493 24.6041 25.436 24.6939 25.624C24.7746 25.7922 24.9078 25.909 25.0936 25.9743C25.2804 26.0396 25.4646 26.0345 25.6478 25.9596ZM25.1932 27.9945C25.2361 27.8725 25.2503 27.7556 25.2378 27.6445C25.2204 27.582 25.1986 27.5218 25.1705 27.464C25.0905 27.2965 24.9573 27.1797 24.7714 27.1144C24.5848 27.0487 24.4086 27.0566 24.2406 27.1369C24.0735 27.217 23.9564 27.3497 23.8908 27.5363C23.8253 27.7226 23.8331 27.8992 23.9133 28.0672C23.994 28.234 24.1268 28.3507 24.3134 28.4163C24.4993 28.4817 24.6763 28.4741 24.8432 28.3943C25.0109 28.3139 25.1276 28.1807 25.1932 27.9945ZM26.6288 29.7793C26.6101 29.7396 26.588 29.7054 26.5608 29.677C26.4589 29.5018 26.3176 29.3826 26.1377 29.3193C25.9208 29.243 25.7056 29.2623 25.4904 29.3788C25.2649 29.4734 25.1145 29.6293 25.0381 29.8466C24.9618 30.0636 24.9785 30.2872 25.0896 30.5181C25.1907 30.7275 25.3485 30.87 25.5654 30.9463C25.7823 31.0226 26.0033 31.0134 26.228 30.9186C26.4436 30.8026 26.5883 30.6358 26.6646 30.4188C26.7409 30.2019 26.7299 29.9888 26.6288 29.7793ZM29.1337 31.4967C29.0389 31.2998 28.9066 31.1574 28.7352 31.0688C28.7049 31.0582 28.6734 31.0471 28.6423 31.0362C28.4254 30.9598 28.2096 30.9798 27.9944 31.0959C27.7694 31.1915 27.6188 31.3469 27.5425 31.5639C27.4662 31.7808 27.4834 32.0046 27.5938 32.2348C27.6944 32.4441 27.8529 32.5872 28.0698 32.6635C28.2868 32.7398 28.5083 32.7304 28.733 32.6356C28.948 32.5199 29.0936 32.3533 29.1699 32.1363C29.2458 31.9193 29.2342 31.7064 29.1337 31.4967ZM32.126 26.3318C32.1415 26.3642 32.1565 26.3954 32.1711 26.4266C32.2856 26.6067 32.4498 26.7334 32.664 26.8088C32.9116 26.8959 33.151 26.8842 33.3813 26.7734C33.612 26.6628 33.7704 26.4837 33.8576 26.2361C33.9448 25.9881 33.9334 25.7492 33.8228 25.5185C33.7125 25.288 33.5331 25.1294 33.2854 25.0423C33.0374 24.955 32.7982 24.9663 32.5675 25.0769C32.3371 25.1877 32.1783 25.3666 32.091 25.6147C32.0039 25.8623 32.0158 26.1013 32.126 26.3318ZM33.9726 28.7318C33.8723 28.5226 33.7135 28.3794 33.4965 28.303C33.2796 28.2267 33.0664 28.2391 32.8569 28.3393C32.6476 28.44 32.5049 28.5986 32.4285 28.8155C32.4168 28.849 32.406 28.8797 32.3959 28.9084C32.3569 29.0955 32.3793 29.2777 32.4642 29.4554C32.5655 29.6644 32.7234 29.8078 32.9403 29.8841C33.1576 29.9606 33.371 29.9478 33.58 29.8479C33.7895 29.7464 33.9325 29.5884 34.0088 29.3714C34.0848 29.1544 34.0728 28.9413 33.9726 28.7318ZM31.2678 31.5941C31.4769 31.4938 31.6223 31.3276 31.7041 31.0952C31.7806 30.8778 31.7708 30.6571 31.6767 30.4317C31.576 30.2224 31.4094 30.0769 31.177 29.9951C30.96 29.9188 30.7462 29.9305 30.537 30.0308C30.5178 30.041 30.5046 30.0543 30.4974 30.0697C30.3021 30.1789 30.1695 30.333 30.0999 30.5308C30.0181 30.7633 30.0278 30.984 30.1281 31.1932C30.2281 31.4031 30.3873 31.5456 30.6046 31.6221C30.8371 31.7038 31.0581 31.6947 31.2678 31.5941ZM27.2175 22.9076C27.1355 23.1405 27.1506 23.3716 27.2612 23.6023C27.3615 23.8115 27.5274 23.9577 27.7603 24.0396C27.8576 24.0738 27.9561 24.0906 28.0552 24.0905C28.1855 24.0982 28.3161 24.0747 28.4459 24.0191C28.6607 23.9029 28.8095 23.7294 28.8915 23.4965C28.9733 23.264 28.9633 23.0427 28.8631 22.8332C28.7525 22.6025 28.5814 22.4469 28.3489 22.3651C28.116 22.2831 27.8928 22.3 27.678 22.4163C27.4533 22.5111 27.2993 22.6751 27.2175 22.9076Z" fill="#F75454"/>
<path d="M30.4862 30.0658C30.5014 30.0532 30.5186 30.0413 30.5378 30.0311C30.747 29.9308 30.9604 29.9189 31.1778 29.9954C31.4102 30.0772 31.5768 30.2227 31.6775 30.432C31.772 30.6575 31.7814 30.8781 31.7049 31.0954C31.6231 31.3279 31.4773 31.494 31.2686 31.5944C31.0588 31.6953 30.8379 31.7041 30.6054 31.6223C30.3885 31.546 30.2289 31.4034 30.1289 31.1935C30.0286 30.9843 30.0189 30.7636 30.1007 30.5311C30.1699 30.3332 30.2991 30.1774 30.4862 30.0658ZM30.4862 30.0658C30.1213 29.4114 29.8553 28.9306 29.6878 28.6221M28.7356 31.069C28.797 30.8804 28.8531 30.4995 28.9025 29.9259C28.9295 29.4111 28.9377 29.0044 28.9268 28.7066M28.7356 31.069C28.9068 31.157 29.0391 31.2994 29.1341 31.4968C29.2345 31.7069 29.2466 31.9196 29.1703 32.1365C29.094 32.3534 28.9484 32.52 28.7334 32.6357C28.5087 32.7305 28.2872 32.74 28.0702 32.6636C27.8533 32.5873 27.6948 32.4442 27.5942 32.2349C27.4838 32.0047 27.4666 31.7809 27.5429 31.564C27.6192 31.3471 27.77 31.1913 27.9948 31.096C28.21 30.9799 28.4258 30.96 28.6427 31.0363C28.6742 31.0474 28.7057 31.0585 28.7356 31.069ZM26.5655 29.6652C26.5896 29.7024 26.6105 29.7397 26.6292 29.7795C26.7303 29.9889 26.7415 30.2017 26.665 30.419C26.5887 30.6359 26.444 30.8028 26.2284 30.9187C26.0037 31.0136 25.7827 31.0227 25.5658 30.9464C25.3489 30.8701 25.1907 30.7275 25.09 30.5182C24.9789 30.2874 24.9622 30.0637 25.0385 29.8468C25.1149 29.6295 25.2654 29.4731 25.4908 29.379C25.7065 29.2626 25.9212 29.2432 26.1381 29.3195C26.3174 29.383 26.4602 29.4982 26.5655 29.6652ZM26.5655 29.6652C26.9165 29.4253 27.466 28.9397 28.2146 28.2078M25.2263 27.6405C25.2479 27.7547 25.2363 27.873 25.1936 27.9946C25.128 28.1808 25.0114 28.3137 24.8436 28.3945C24.6767 28.4742 24.4997 28.4818 24.3138 28.4165C24.1272 28.3508 23.9948 28.2343 23.9137 28.0673C23.8337 27.8998 23.8257 27.7227 23.8912 27.5365C23.9568 27.3499 24.0734 27.2174 24.241 27.137C24.4086 27.0566 24.5852 27.0489 24.7719 27.1145C24.9577 27.1799 25.0909 27.2967 25.1709 27.4642C25.1991 27.5216 25.2176 27.581 25.2263 27.6405ZM25.2263 27.6405C25.7955 27.6095 26.6147 27.5585 27.6842 27.4862M25.954 25.6496C25.8878 25.7805 25.7863 25.8842 25.6482 25.9597C25.4644 26.0349 25.2803 26.04 25.094 25.9745C24.9082 25.9091 24.775 25.7923 24.6943 25.6242C24.6041 25.436 24.5922 25.2495 24.6579 25.0628C24.7231 24.8774 24.8472 24.7463 25.0295 24.6715C25.2031 24.5753 25.3825 24.5609 25.5683 24.6263C25.7545 24.6918 25.8924 24.8183 25.9833 25.0071C26.0642 25.1744 26.0713 25.3517 26.0061 25.5371C25.9925 25.5758 25.9749 25.6131 25.954 25.6496ZM25.954 25.6496C26.0687 25.7424 26.4195 25.9707 27.0058 26.3333C27.4111 26.5812 27.7071 26.7548 27.8939 26.8546M28.0561 24.0904C27.957 24.0905 27.8585 24.0737 27.7612 24.0395C27.5284 23.9576 27.3624 23.8114 27.2622 23.6022C27.1511 23.3714 27.1365 23.1404 27.2184 22.9075C27.3002 22.675 27.4541 22.5114 27.6793 22.4163C27.8941 22.3001 28.1174 22.2832 28.3503 22.3651C28.5827 22.4469 28.7538 22.6025 28.8645 22.8332C28.9646 23.0428 28.9746 23.2641 28.8928 23.4965C28.8109 23.7294 28.662 23.9029 28.4473 24.0191C28.3171 24.0746 28.1865 24.0981 28.0561 24.0904ZM28.0561 24.0904C28.1206 24.386 28.3316 25.1225 28.6898 26.2989M32.1715 26.4267C31.8909 26.5785 31.4437 26.7873 30.8284 27.0512C30.5604 27.1621 30.3351 27.2572 30.1535 27.3367C30.0544 27.3749 29.9684 27.4105 29.8949 27.4411M32.1715 26.4267C32.1569 26.3956 32.1418 26.3647 32.1264 26.332C32.0162 26.1014 32.0043 25.8624 32.0914 25.6148C32.1787 25.3668 32.3375 25.1878 32.5679 25.0771C32.7986 24.9664 33.0378 24.9552 33.2858 25.0424C33.5335 25.1295 33.7129 25.2881 33.8232 25.5187C33.9338 25.7494 33.9452 25.9882 33.858 26.2362C33.7708 26.4839 33.6123 26.6633 33.3817 26.7736C33.1514 26.8843 32.912 26.896 32.6644 26.8089C32.4504 26.7332 32.2862 26.6064 32.1715 26.4267ZM32.3957 28.9088C32.1654 28.8349 31.7984 28.7152 31.2948 28.548C30.7044 28.3514 30.2773 28.1922 30.0127 28.0705M32.3957 28.9088C32.4058 28.8801 32.4166 28.8494 32.4284 28.8159C32.5047 28.599 32.6476 28.44 32.8567 28.3397C33.0667 28.2397 33.2795 28.2271 33.4964 28.3034C33.7137 28.3799 33.8722 28.523 33.9725 28.7322C34.0726 28.9417 34.085 29.1549 34.0087 29.3718C33.9324 29.5887 33.7893 29.7472 33.5798 29.8483C33.3708 29.9482 33.1571 29.9608 32.9402 29.8845C32.7233 29.8082 32.5649 29.6647 32.4641 29.4558C32.3792 29.2781 32.3564 29.0957 32.3957 28.9088ZM30.4527 24.7766L30.4296 24.7685C30.2597 24.7087 30.1339 24.595 30.0535 24.4274C29.9731 24.2597 29.9634 24.09 30.0231 23.9202C30.0832 23.7495 30.1967 23.6241 30.3644 23.5437C30.5317 23.4641 30.701 23.4542 30.8709 23.514C31.0416 23.574 31.167 23.6876 31.2476 23.8544C31.328 24.0221 31.3375 24.1912 31.2776 24.3615C31.2177 24.5318 31.1043 24.6581 30.9368 24.7381C30.7776 24.8147 30.6167 24.8276 30.4527 24.7766ZM30.4527 24.7766C30.4075 24.9306 30.2616 25.2449 30.0164 25.7201C29.8587 26.0258 29.741 26.2622 29.6619 26.4311" stroke="#4C1B20" stroke-linecap="round" stroke-linejoin="round"/>
</svg>
